<svg width="50" height="50" viewBox="0 0 50 50" fill="none" xmlns="http://www.w3.org/2000/svg">
<path d="M33.3333 50L16.6667 44.1667L3.75 49.1667C2.82407 49.537 1.96759 49.4329 1.18056 48.8542C0.393519 48.2755 0 47.5 0 46.5278V7.63889C0 7.03704 0.173611 6.50463 0.520833 6.04167C0.868056 5.5787 1.34259 5.23148 1.94444 5L16.6667 0L33.3333 5.83333L46.25 0.833333C47.1759 0.462963 48.0324 0.56713 48.8194 1.14583C49.6065 1.72454 50 2.5 50 3.47222V42.3611C50 42.963 49.8264 43.4954 49.4792 43.9583C49.1319 44.4213 48.6574 44.7685 48.0556 45L33.3333 50ZM30.5556 43.1944V10.6944L19.4444 6.80556V39.3056L30.5556 43.1944ZM36.1111 43.1944L44.4444 40.4167V7.5L36.1111 10.6944V43.1944ZM5.55556 42.5L13.8889 39.3056V6.80556L5.55556 9.58333V42.5Z" fill="#032F30"/>
</svg>
