<svg width="50" height="43" viewBox="0 0 50 43" fill="none" xmlns="http://www.w3.org/2000/svg">
<path d="M40.7609 42.8804L24.3478 26.4674C23.1884 28.4239 21.6123 29.9909 19.6196 31.1685C17.6268 32.346 15.4348 32.9348 13.0435 32.9348C9.42029 32.9348 6.34058 31.6667 3.80435 29.1304C1.26812 26.5942 0 23.5145 0 19.8913C0 17.5 0.588768 15.308 1.7663 13.3152C2.94384 11.3225 4.51087 9.74638 6.46739 8.58696L0.923913 3.04348L4.02174 0L43.8043 39.837L40.7609 42.8804ZM43.4783 13.3696L50 19.8913L40.0543 29.837L33.1522 22.9891L35.8696 20.9783L39.7826 23.913L43.8587 19.8913L41.6848 17.7174H27.8804L23.5326 13.3696H43.4783ZM13.0435 28.587C14.8913 28.587 16.5308 28.0888 17.962 27.0924C19.3931 26.096 20.4348 24.8007 21.087 23.2065L18.0435 20.163L15.4076 17.5272L12.7717 14.8913L9.72826 11.8478C8.13406 12.5 6.83877 13.5417 5.84239 14.9728C4.84601 16.404 4.34783 18.0435 4.34783 19.8913C4.34783 22.2826 5.19928 24.3297 6.90217 26.0326C8.60507 27.7355 10.6522 28.587 13.0435 28.587ZM13.0435 24.2391C11.8478 24.2391 10.8243 23.8134 9.97283 22.962C9.12138 22.1105 8.69565 21.087 8.69565 19.8913C8.69565 18.6957 9.12138 17.6721 9.97283 16.8207C10.8243 15.9692 11.8478 15.5435 13.0435 15.5435C14.2391 15.5435 15.2627 15.9692 16.1141 16.8207C16.9656 17.6721 17.3913 18.6957 17.3913 19.8913C17.3913 21.087 16.9656 22.1105 16.1141 22.962C15.2627 23.8134 14.2391 24.2391 13.0435 24.2391Z" fill="#032F30"/>
</svg>
